<?xml version="1.0" standalone="no"?>
<!DOCTYPE svg PUBLIC "-//W3C//DTD SVG 20010904//EN"
 "http://www.w3.org/TR/2001/REC-SVG-20010904/DTD/svg10.dtd">
<svg version="1.0" xmlns="http://www.w3.org/2000/svg"
 width="128.000000pt" height="128.000000pt" viewBox="0 0 128.000000 128.000000"
 preserveAspectRatio="xMidYMid meet">

<g transform="translate(0.000000,128.000000) scale(0.100000,-0.100000)"
fill="#000000" stroke="none">
<path d="M5 640 l0 -630 633 0 632 0 0 630 0 630 -632 0 -633 0 0 -630z m853
-3 c84 -204 152 -375 152 -379 0 -14 -197 -9 -208 5 -6 6 -18 32 -28 57 -9 25
-18 46 -19 48 -1 1 -67 -25 -146 -58 -143 -60 -145 -60 -243 -60 -93 0 -98 1
-93 20 3 11 69 182 148 380 l142 360 71 0 71 0 153 -373z"/>
<path d="M611 629 c-13 -35 -34 -92 -46 -126 l-23 -61 76 35 c42 19 78 36 80
37 1 2 -13 43 -31 91 l-33 88 -23 -64z"/>
</g>
</svg>
